<mxfile host="app.diagrams.net" modified="2022-06-16T03:51:34.306Z" agent="5.0 (Windows NT 10.0; Win64; x64) AppleWebKit/537.36 (KHTML, like Gecko) Chrome/102.0.5005.63 Safari/537.36 Edg/102.0.1245.39" etag="GsziBsgpjbTZdj5ufWgg" version="20.0.1" type="github">
  <diagram id="qD9cVtpdKziQ_UhONeAe" name="Page-1">
    <mxGraphModel dx="1422" dy="794" grid="1" gridSize="10" guides="1" tooltips="1" connect="1" arrows="1" fold="1" page="1" pageScale="1" pageWidth="827" pageHeight="1169" math="0" shadow="0">
      <root>
        <mxCell id="0" />
        <mxCell id="1" parent="0" />
        <mxCell id="HZPL37ttOVomfuP8rKHR-3" value="" style="edgeStyle=orthogonalEdgeStyle;rounded=0;orthogonalLoop=1;jettySize=auto;html=1;" edge="1" parent="1" source="HZPL37ttOVomfuP8rKHR-1" target="HZPL37ttOVomfuP8rKHR-2">
          <mxGeometry relative="1" as="geometry" />
        </mxCell>
        <mxCell id="HZPL37ttOVomfuP8rKHR-11" value="" style="edgeStyle=orthogonalEdgeStyle;rounded=0;orthogonalLoop=1;jettySize=auto;html=1;" edge="1" parent="1" source="HZPL37ttOVomfuP8rKHR-1" target="HZPL37ttOVomfuP8rKHR-10">
          <mxGeometry relative="1" as="geometry" />
        </mxCell>
        <mxCell id="HZPL37ttOVomfuP8rKHR-13" value="" style="edgeStyle=orthogonalEdgeStyle;rounded=0;orthogonalLoop=1;jettySize=auto;html=1;" edge="1" parent="1" source="HZPL37ttOVomfuP8rKHR-1" target="HZPL37ttOVomfuP8rKHR-12">
          <mxGeometry relative="1" as="geometry" />
        </mxCell>
        <mxCell id="HZPL37ttOVomfuP8rKHR-1" value="ТОиР" style="rounded=1;arcSize=10;whiteSpace=wrap;html=1;align=center;" vertex="1" parent="1">
          <mxGeometry x="400" y="360" width="100" height="40" as="geometry" />
        </mxCell>
        <mxCell id="HZPL37ttOVomfuP8rKHR-5" value="" style="edgeStyle=orthogonalEdgeStyle;rounded=0;orthogonalLoop=1;jettySize=auto;html=1;" edge="1" parent="1" source="HZPL37ttOVomfuP8rKHR-2" target="HZPL37ttOVomfuP8rKHR-4">
          <mxGeometry relative="1" as="geometry" />
        </mxCell>
        <mxCell id="HZPL37ttOVomfuP8rKHR-7" value="" style="edgeStyle=orthogonalEdgeStyle;rounded=0;orthogonalLoop=1;jettySize=auto;html=1;" edge="1" parent="1" source="HZPL37ttOVomfuP8rKHR-2" target="HZPL37ttOVomfuP8rKHR-6">
          <mxGeometry relative="1" as="geometry" />
        </mxCell>
        <mxCell id="HZPL37ttOVomfuP8rKHR-9" value="" style="edgeStyle=orthogonalEdgeStyle;rounded=0;orthogonalLoop=1;jettySize=auto;html=1;" edge="1" parent="1" source="HZPL37ttOVomfuP8rKHR-2" target="HZPL37ttOVomfuP8rKHR-8">
          <mxGeometry relative="1" as="geometry" />
        </mxCell>
        <mxCell id="HZPL37ttOVomfuP8rKHR-2" value="Планировщик" style="whiteSpace=wrap;html=1;rounded=1;arcSize=10;" vertex="1" parent="1">
          <mxGeometry x="390" y="230" width="120" height="60" as="geometry" />
        </mxCell>
        <mxCell id="HZPL37ttOVomfuP8rKHR-4" value="Web" style="whiteSpace=wrap;html=1;rounded=1;arcSize=10;" vertex="1" parent="1">
          <mxGeometry x="590" y="180" width="120" height="60" as="geometry" />
        </mxCell>
        <mxCell id="HZPL37ttOVomfuP8rKHR-6" value="Mobile" style="whiteSpace=wrap;html=1;rounded=1;arcSize=10;" vertex="1" parent="1">
          <mxGeometry x="590" y="270" width="120" height="60" as="geometry" />
        </mxCell>
        <mxCell id="HZPL37ttOVomfuP8rKHR-8" value="Периоды:&lt;br&gt;день~год" style="whiteSpace=wrap;html=1;rounded=1;arcSize=10;" vertex="1" parent="1">
          <mxGeometry x="390" y="90" width="120" height="60" as="geometry" />
        </mxCell>
        <mxCell id="HZPL37ttOVomfuP8rKHR-10" value="Уведомления&amp;nbsp;" style="whiteSpace=wrap;html=1;rounded=1;arcSize=10;" vertex="1" parent="1">
          <mxGeometry x="210" y="310" width="120" height="60" as="geometry" />
        </mxCell>
        <mxCell id="HZPL37ttOVomfuP8rKHR-12" value="Статусы работ" style="whiteSpace=wrap;html=1;rounded=1;arcSize=10;" vertex="1" parent="1">
          <mxGeometry x="210" y="390" width="120" height="60" as="geometry" />
        </mxCell>
      </root>
    </mxGraphModel>
  </diagram>
</mxfile>
